<?xml version="1.0" standalone="no"?>
<!DOCTYPE svg PUBLIC "-//W3C//DTD SVG 20010904//EN"
 "http://www.w3.org/TR/2001/REC-SVG-20010904/DTD/svg10.dtd">
<svg version="1.0" xmlns="http://www.w3.org/2000/svg"
 width="1280.000000pt" height="988.000000pt" viewBox="0 0 1280.000000 988.000000"
 preserveAspectRatio="xMidYMid meet">
<metadata>
Created by potrace 1.15, written by Peter Selinger 2001-2017
</metadata>
<g transform="translate(0.000000,988.000000) scale(0.100000,-0.100000)"
fill="#000000" stroke="none">
<path d="M12001 9600 c-60 -27 -110 -68 -221 -180 -116 -115 -179 -189 -294
-340 -111 -146 -157 -237 -163 -322 -5 -61 -3 -67 52 -178 97 -196 124 -283
146 -462 30 -250 -57 -833 -192 -1289 -60 -203 -166 -515 -199 -584 -5 -11
-25 -58 -44 -105 -205 -510 -546 -1182 -944 -1860 -136 -232 -430 -703 -521
-834 l-34 -49 -49 99 c-110 219 -265 385 -423 455 -209 91 -437 31 -613 -163
-36 -39 -118 -153 -126 -173 -6 -17 -16 0 -30 56 -15 55 -29 107 -87 324 -17
66 -46 176 -64 245 -47 177 -93 353 -116 438 -11 40 -38 144 -60 230 -64 249
-97 373 -130 500 -39 147 -88 341 -93 367 -3 11 -27 115 -56 230 -47 193 -87
360 -110 460 -48 207 -60 260 -66 295 -3 14 -18 84 -34 155 -16 72 -42 200
-59 285 -29 148 -47 235 -58 290 -3 14 -11 63 -18 110 -8 47 -21 126 -29 175
-24 141 -35 213 -47 300 -6 44 -15 109 -20 145 -31 218 -44 337 -84 745 -26
274 -39 325 -88 373 -58 56 -128 67 -205 32 -119 -54 -313 -305 -480 -620 -61
-116 -73 -144 -222 -545 -87 -233 -113 -298 -159 -398 -16 -34 -52 -114 -81
-177 -70 -155 -268 -580 -370 -795 -380 -801 -625 -1304 -980 -2015 -485 -970
-801 -1562 -1000 -1877 l-28 -44 -10 48 c-6 26 -18 98 -27 158 -9 61 -25 160
-35 220 -36 208 -50 291 -55 315 -3 14 -7 41 -11 60 -3 19 -9 55 -14 80 -5 25
-18 95 -29 155 -11 61 -39 205 -61 320 -22 116 -43 221 -45 235 -3 14 -9 45
-14 70 -57 283 -87 426 -111 535 -16 72 -32 146 -35 165 -3 19 -13 64 -21 100
-26 113 -33 144 -41 180 -4 19 -7 37 -8 40 -1 3 -5 21 -9 40 -9 45 -29 132
-56 245 -12 50 -23 97 -25 105 -20 94 -75 321 -121 505 -20 77 -37 147 -39
155 -7 34 -18 79 -35 140 -10 36 -30 112 -45 170 -15 58 -61 224 -102 370 -41
146 -79 279 -83 295 -22 81 -199 624 -248 760 -117 324 -258 628 -362 782
-171 254 -351 357 -544 314 -215 -50 -846 -396 -1020 -560 -133 -127 -144
-269 -26 -349 38 -25 33 -24 182 -46 318 -48 510 -214 704 -610 138 -280 256
-583 386 -986 22 -69 46 -143 53 -165 18 -54 138 -477 169 -595 38 -144 96
-372 100 -395 3 -11 19 -78 36 -150 18 -71 33 -137 35 -145 2 -8 22 -98 45
-200 23 -102 44 -196 47 -210 2 -14 13 -65 24 -115 20 -88 122 -596 134 -665
3 -19 12 -66 20 -105 32 -165 48 -251 51 -270 2 -21 17 -103 34 -198 19 -109
30 -173 45 -267 15 -92 25 -154 45 -272 20 -116 30 -185 45 -288 8 -58 19
-134 25 -170 15 -99 29 -193 45 -320 8 -63 19 -151 25 -195 12 -91 27 -204 40
-320 5 -44 16 -179 25 -300 8 -121 17 -242 19 -270 3 -27 8 -153 11 -280 7
-307 14 -414 30 -474 40 -154 148 -199 300 -126 193 92 529 475 738 840 51 89
68 132 121 314 47 159 134 396 221 601 20 47 44 105 55 130 29 72 672 1382
1472 3000 308 623 665 1322 751 1474 50 86 51 88 59 60 16 -55 49 -181 52
-200 3 -10 23 -90 45 -176 22 -86 66 -255 97 -375 30 -120 78 -306 106 -413
47 -183 65 -254 73 -290 2 -8 18 -69 35 -135 30 -114 47 -182 55 -215 2 -8 49
-195 105 -415 100 -390 118 -464 125 -495 2 -8 22 -87 44 -175 23 -88 43 -170
45 -181 2 -11 16 -65 30 -120 43 -168 272 -1100 310 -1264 43 -180 46 -194 67
-295 6 -27 15 -66 19 -85 29 -133 56 -262 71 -345 6 -33 14 -78 19 -100 7 -36
25 -141 35 -205 2 -14 11 -70 20 -125 36 -226 52 -354 61 -480 18 -276 80
-409 206 -444 40 -11 53 -11 98 4 152 50 562 414 721 640 20 28 65 107 102
176 135 260 322 547 422 649 40 41 89 98 108 126 39 56 106 194 130 264 8 25
76 142 151 260 117 187 324 517 437 698 386 620 762 1257 967 1637 41 77 119
219 172 315 54 97 123 225 155 285 32 61 61 115 65 120 12 16 223 438 275 550
41 89 110 242 180 405 124 286 288 777 357 1065 5 22 11 47 13 55 80 328 125
688 125 996 0 266 -26 439 -100 679 -91 292 -287 453 -459 375z"/>
</g>
</svg>
